G04 Layer_Color=8388736*
%FSLAX25Y25*%
%MOIN*%
G70*
G01*
G75*
%ADD30R,0.05721X0.07493*%
%ADD31R,0.07493X0.05721*%
%ADD32R,0.04737X0.04737*%
%ADD33R,0.24422X0.24422*%
%ADD34R,0.05524X0.04343*%
%ADD35R,0.04343X0.05524*%
%ADD36R,0.12611X0.04343*%
%ADD37R,0.08674X0.12611*%
%ADD38R,0.06706X0.06706*%
%ADD39C,0.06706*%
%ADD40O,0.05800X0.10800*%
%ADD41R,0.05800X0.10800*%
%ADD42C,0.06800*%
%ADD43R,0.06706X0.06706*%
%ADD44C,0.05800*%
D30*
X682500Y199000D02*
D03*
Y185024D02*
D03*
Y223000D02*
D03*
Y209024D02*
D03*
X570000Y268524D02*
D03*
Y282500D02*
D03*
X577500Y161024D02*
D03*
Y175000D02*
D03*
X604000Y174976D02*
D03*
Y161000D02*
D03*
D31*
X552500Y282500D02*
D03*
X538524D02*
D03*
D32*
X596260Y148618D02*
D03*
X603740D02*
D03*
X600000Y138382D02*
D03*
D33*
X622622Y233051D02*
D03*
D34*
X657508Y263500D02*
D03*
Y258500D02*
D03*
Y253500D02*
D03*
Y248500D02*
D03*
Y243500D02*
D03*
Y238500D02*
D03*
Y233500D02*
D03*
Y228500D02*
D03*
Y223500D02*
D03*
Y218500D02*
D03*
Y213500D02*
D03*
Y208500D02*
D03*
Y203500D02*
D03*
Y198500D02*
D03*
X585508D02*
D03*
Y203500D02*
D03*
Y208500D02*
D03*
Y213500D02*
D03*
Y218500D02*
D03*
Y223500D02*
D03*
Y228500D02*
D03*
Y233500D02*
D03*
Y238500D02*
D03*
Y243500D02*
D03*
Y248500D02*
D03*
Y253500D02*
D03*
Y258500D02*
D03*
Y263500D02*
D03*
D35*
X644000Y192000D02*
D03*
X639000D02*
D03*
X634000D02*
D03*
X629000D02*
D03*
X624000D02*
D03*
X619000D02*
D03*
X614000D02*
D03*
X609000D02*
D03*
X604000D02*
D03*
X599008D02*
D03*
D36*
X558303Y249445D02*
D03*
Y258500D02*
D03*
Y267555D02*
D03*
D37*
X533500Y258500D02*
D03*
D38*
X654000Y117500D02*
D03*
X567500D02*
D03*
X365500D02*
D03*
X240500D02*
D03*
X436500D02*
D03*
D39*
X644000D02*
D03*
X634000D02*
D03*
X577500D02*
D03*
X355500D02*
D03*
X345500D02*
D03*
X335500D02*
D03*
X230500D02*
D03*
X220500D02*
D03*
X210500D02*
D03*
X446500D02*
D03*
X682500Y127500D02*
D03*
Y243500D02*
D03*
Y253500D02*
D03*
X470000Y216886D02*
D03*
X462126Y210193D02*
D03*
X470000Y203500D02*
D03*
X462126Y196807D02*
D03*
X470000Y190114D02*
D03*
D40*
X315500Y149500D02*
D03*
X325500D02*
D03*
X335500D02*
D03*
X345500D02*
D03*
X355500D02*
D03*
X365500D02*
D03*
X375500D02*
D03*
X385500D02*
D03*
X315500Y199500D02*
D03*
X325500D02*
D03*
X335500D02*
D03*
X345500D02*
D03*
X355500D02*
D03*
X365500D02*
D03*
X375500D02*
D03*
X190500Y149500D02*
D03*
X200500D02*
D03*
X210500D02*
D03*
X220500D02*
D03*
X230500D02*
D03*
X240500D02*
D03*
X250500D02*
D03*
X260500D02*
D03*
X190500Y199500D02*
D03*
X200500D02*
D03*
X210500D02*
D03*
X220500D02*
D03*
X230500D02*
D03*
X240500D02*
D03*
X250500D02*
D03*
D41*
X385500D02*
D03*
X260500D02*
D03*
D42*
X288000Y137500D02*
D03*
Y117500D02*
D03*
X405500Y137500D02*
D03*
Y117500D02*
D03*
X446500Y225000D02*
D03*
X426500D02*
D03*
X505000Y224500D02*
D03*
X485000D02*
D03*
X505000Y187000D02*
D03*
Y197000D02*
D03*
X446500Y190000D02*
D03*
X426500D02*
D03*
D43*
X682500Y117500D02*
D03*
Y263500D02*
D03*
D44*
X561500Y175000D02*
D03*
M02*
