M48
;Layer_Color=9474304
;FILE_FORMAT=2:5
INCH,LZ
;TYPE=PLATED
T1F00S00C0.02500
T2F00S00C0.02800
T3F00S00C0.03543
T4F00S00C0.04331
%
T01
X01905Y01495
X02005
X02105
X02205
X02305
X02405
X02505
X02605
X03155
X03255
X03355
X03455
X03555
X03655
X03755
X03855
Y01995
X03755
X03655
X03555
X03455
X03355
X03255
X03155
X02605
X02505
X02405
X02305
X02205
X02105
X02005
X01905
T02
X05615Y0175
T03
X02105Y01175
X02205
X02305
X02405
X0288
Y01375
X03355Y01175
X03455
X03555
X03655
X04055
Y01375
X04365Y01175
X04465
X05675
X05775
X0634
X0644
X0654
X06825
Y01275
Y02435
Y02535
Y02635
X0505Y02245
X0485
X0505Y0197
Y0187
X04465Y019
X04265
Y0225
X04465
T04
X047Y0190114
Y02035
Y0216886
X0462126Y0210193
Y0196807
M30
