G04 Layer_Color=8421504*
%FSLAX25Y25*%
%MOIN*%
G70*
G01*
G75*
%ADD10R,0.04921X0.06693*%
%ADD11R,0.06693X0.04921*%
%ADD12R,0.03937X0.03937*%
%ADD13R,0.23622X0.23622*%
%ADD14R,0.04724X0.03543*%
%ADD15R,0.03543X0.04724*%
%ADD16R,0.11811X0.03543*%
%ADD17R,0.07874X0.11811*%
D10*
X682500Y199000D02*
D03*
Y185024D02*
D03*
Y223000D02*
D03*
Y209024D02*
D03*
X570000Y268524D02*
D03*
Y282500D02*
D03*
X577500Y161024D02*
D03*
Y175000D02*
D03*
X604000Y174976D02*
D03*
Y161000D02*
D03*
D11*
X552500Y282500D02*
D03*
X538524D02*
D03*
D12*
X596260Y148618D02*
D03*
X603740D02*
D03*
X600000Y138382D02*
D03*
D13*
X622622Y233051D02*
D03*
D14*
X657508Y263500D02*
D03*
Y258500D02*
D03*
Y253500D02*
D03*
Y248500D02*
D03*
Y243500D02*
D03*
Y238500D02*
D03*
Y233500D02*
D03*
Y228500D02*
D03*
Y223500D02*
D03*
Y218500D02*
D03*
Y213500D02*
D03*
Y208500D02*
D03*
Y203500D02*
D03*
Y198500D02*
D03*
X585508D02*
D03*
Y203500D02*
D03*
Y208500D02*
D03*
Y213500D02*
D03*
Y218500D02*
D03*
Y223500D02*
D03*
Y228500D02*
D03*
Y233500D02*
D03*
Y238500D02*
D03*
Y243500D02*
D03*
Y248500D02*
D03*
Y253500D02*
D03*
Y258500D02*
D03*
Y263500D02*
D03*
D15*
X644000Y192000D02*
D03*
X639000D02*
D03*
X634000D02*
D03*
X629000D02*
D03*
X624000D02*
D03*
X619000D02*
D03*
X614000D02*
D03*
X609000D02*
D03*
X604000D02*
D03*
X599008D02*
D03*
D16*
X558303Y249445D02*
D03*
Y258500D02*
D03*
Y267555D02*
D03*
D17*
X533500Y258500D02*
D03*
M02*
