G04 Layer_Color=65535*
%FSLAX25Y25*%
%MOIN*%
G70*
G01*
G75*
%ADD19C,0.01000*%
%ADD28C,0.00787*%
%ADD29C,0.00394*%
D19*
X390500Y177000D02*
G03*
X390500Y172000I0J-2500D01*
G01*
X265500Y177000D02*
G03*
X265500Y172000I0J-2500D01*
G01*
X295182Y120160D02*
G03*
X295182Y134525I-7182J7182D01*
G01*
X280818D02*
G03*
X280818Y120160I7182J-7182D01*
G01*
X412682D02*
G03*
X412682Y134525I-7182J7182D01*
G01*
X398318D02*
G03*
X398318Y120160I7182J-7182D01*
G01*
X429160Y217818D02*
G03*
X443525Y217818I7182J7182D01*
G01*
Y232182D02*
G03*
X429160Y232182I-7182J-7182D01*
G01*
X487660Y217318D02*
G03*
X502025Y217318I7182J7182D01*
G01*
Y231682D02*
G03*
X487660Y231682I-7182J-7182D01*
G01*
X429160Y182818D02*
G03*
X443525Y182818I7182J7182D01*
G01*
Y197182D02*
G03*
X429160Y197182I-7182J-7182D01*
G01*
X310500Y191000D02*
X390500D01*
X310500Y158000D02*
Y191000D01*
Y158000D02*
X390500D01*
Y172000D01*
Y177000D02*
Y191000D01*
X185500D02*
X265500D01*
X185500Y158000D02*
Y191000D01*
Y158000D02*
X265500D01*
Y172000D01*
Y177000D02*
Y191000D01*
X475000Y185114D02*
Y186846D01*
X473268Y185114D02*
X475000D01*
X457008D02*
X458858D01*
X457008D02*
Y186965D01*
Y220823D02*
Y222114D01*
X475000Y220941D02*
Y222114D01*
X473433D02*
X475000D01*
X457008D02*
X458693D01*
X187999Y283291D02*
X184000D01*
Y277293D01*
X187999D01*
X184000Y280292D02*
X185999D01*
X193997Y282291D02*
X192997Y283291D01*
X190998D01*
X189998Y282291D01*
Y281292D01*
X190998Y280292D01*
X192997D01*
X193997Y279292D01*
Y278293D01*
X192997Y277293D01*
X190998D01*
X189998Y278293D01*
X195996Y277293D02*
Y283291D01*
X198995D01*
X199995Y282291D01*
Y280292D01*
X198995Y279292D01*
X195996D01*
X201994Y282291D02*
X202994Y283291D01*
X204993D01*
X205993Y282291D01*
Y281292D01*
X204993Y280292D01*
X203994D01*
X204993D01*
X205993Y279292D01*
Y278293D01*
X204993Y277293D01*
X202994D01*
X201994Y278293D01*
X211991Y277293D02*
X207992D01*
X211991Y281292D01*
Y282291D01*
X210991Y283291D01*
X208992D01*
X207992Y282291D01*
X219988Y283291D02*
Y277293D01*
X222987D01*
X223987Y278293D01*
Y279292D01*
X222987Y280292D01*
X219988D01*
X222987D01*
X223987Y281292D01*
Y282291D01*
X222987Y283291D01*
X219988D01*
X225986Y277293D02*
Y281292D01*
X227986Y283291D01*
X229985Y281292D01*
Y277293D01*
Y280292D01*
X225986D01*
X235983Y282291D02*
X234983Y283291D01*
X232984D01*
X231984Y282291D01*
Y281292D01*
X232984Y280292D01*
X234983D01*
X235983Y279292D01*
Y278293D01*
X234983Y277293D01*
X232984D01*
X231984Y278293D01*
X241981Y283291D02*
X237983D01*
Y277293D01*
X241981D01*
X237983Y280292D02*
X239982D01*
X243981Y283291D02*
Y277293D01*
X246980D01*
X247979Y278293D01*
Y282291D01*
X246980Y283291D01*
X243981D01*
X259975Y282291D02*
X258976Y283291D01*
X256976D01*
X255977Y282291D01*
Y278293D01*
X256976Y277293D01*
X258976D01*
X259975Y278293D01*
X264974Y283291D02*
X262975D01*
X261975Y282291D01*
Y278293D01*
X262975Y277293D01*
X264974D01*
X265973Y278293D01*
Y282291D01*
X264974Y283291D01*
X267973Y277293D02*
Y283291D01*
X271972Y277293D01*
Y283291D01*
X273971D02*
X277970D01*
X275970D01*
Y277293D01*
X279969D02*
Y283291D01*
X282968D01*
X283968Y282291D01*
Y280292D01*
X282968Y279292D01*
X279969D01*
X281968D02*
X283968Y277293D01*
X288966Y283291D02*
X286967D01*
X285967Y282291D01*
Y278293D01*
X286967Y277293D01*
X288966D01*
X289966Y278293D01*
Y282291D01*
X288966Y283291D01*
X291965D02*
Y277293D01*
X295964D01*
X297963Y283291D02*
Y277293D01*
X301962D01*
X307960Y283291D02*
X303961D01*
Y277293D01*
X307960D01*
X303961Y280292D02*
X305961D01*
X309959Y277293D02*
Y283291D01*
X312958D01*
X313958Y282291D01*
Y280292D01*
X312958Y279292D01*
X309959D01*
X311959D02*
X313958Y277293D01*
X325954Y283291D02*
X321955D01*
Y280292D01*
X323955D01*
X321955D01*
Y277293D01*
X330953Y283291D02*
X328953D01*
X327953Y282291D01*
Y278293D01*
X328953Y277293D01*
X330953D01*
X331952Y278293D01*
Y282291D01*
X330953Y283291D01*
X333951Y277293D02*
Y283291D01*
X336950D01*
X337950Y282291D01*
Y280292D01*
X336950Y279292D01*
X333951D01*
X335951D02*
X337950Y277293D01*
X184000Y273693D02*
Y267695D01*
X187999D01*
X189998D02*
Y271694D01*
X191997Y273693D01*
X193997Y271694D01*
Y267695D01*
Y270694D01*
X189998D01*
X199995Y272694D02*
X198995Y273693D01*
X196996D01*
X195996Y272694D01*
Y271694D01*
X196996Y270694D01*
X198995D01*
X199995Y269695D01*
Y268695D01*
X198995Y267695D01*
X196996D01*
X195996Y268695D01*
X205993Y273693D02*
X201994D01*
Y267695D01*
X205993D01*
X201994Y270694D02*
X203994D01*
X207992Y267695D02*
Y273693D01*
X210991D01*
X211991Y272694D01*
Y270694D01*
X210991Y269695D01*
X207992D01*
X209992D02*
X211991Y267695D01*
X223987Y273693D02*
X219988D01*
Y267695D01*
X223987D01*
X219988Y270694D02*
X221988D01*
X225986Y267695D02*
Y273693D01*
X229985Y267695D01*
Y273693D01*
X235983Y272694D02*
X234983Y273693D01*
X232984D01*
X231984Y272694D01*
Y268695D01*
X232984Y267695D01*
X234983D01*
X235983Y268695D01*
Y270694D01*
X233984D01*
X237983Y267695D02*
Y273693D01*
X240982D01*
X241981Y272694D01*
Y270694D01*
X240982Y269695D01*
X237983D01*
X239982D02*
X241981Y267695D01*
X243981D02*
Y271694D01*
X245980Y273693D01*
X247979Y271694D01*
Y267695D01*
Y270694D01*
X243981D01*
X249979Y273693D02*
Y269695D01*
X251978Y267695D01*
X253977Y269695D01*
Y273693D01*
X259975D02*
X255977D01*
Y267695D01*
X259975D01*
X255977Y270694D02*
X257976D01*
X261975Y267695D02*
Y273693D01*
X264974D01*
X265973Y272694D01*
Y270694D01*
X264974Y269695D01*
X261975D01*
X263974D02*
X265973Y267695D01*
X187999Y263096D02*
X186999Y264096D01*
X185000D01*
X184000Y263096D01*
Y259097D01*
X185000Y258098D01*
X186999D01*
X187999Y259097D01*
X192997Y264096D02*
X190998D01*
X189998Y263096D01*
Y259097D01*
X190998Y258098D01*
X192997D01*
X193997Y259097D01*
Y263096D01*
X192997Y264096D01*
X195996D02*
X197995D01*
X196996D01*
Y258098D01*
X195996D01*
X197995D01*
X200994Y264096D02*
Y258098D01*
X204993D01*
X212991Y264096D02*
Y258098D01*
X214990Y260097D01*
X216989Y258098D01*
Y264096D01*
X218989D02*
X220988D01*
X219988D01*
Y258098D01*
X218989D01*
X220988D01*
X223987D02*
Y264096D01*
X227986Y258098D01*
Y264096D01*
X229985D02*
Y258098D01*
X232984D01*
X233984Y259097D01*
Y263096D01*
X232984Y264096D01*
X229985D01*
X239982D02*
X235983D01*
Y258098D01*
X239982D01*
X235983Y261097D02*
X237983D01*
X241981Y258098D02*
Y264096D01*
X244980D01*
X245980Y263096D01*
Y261097D01*
X244980Y260097D01*
X241981D01*
X243981D02*
X245980Y258098D01*
X187999Y248500D02*
X184000D01*
X187999Y252499D01*
Y253498D01*
X186999Y254498D01*
X185000D01*
X184000Y253498D01*
X189998D02*
X190998Y254498D01*
X192997D01*
X193997Y253498D01*
Y249500D01*
X192997Y248500D01*
X190998D01*
X189998Y249500D01*
Y253498D01*
X195996Y248500D02*
X197995D01*
X196996D01*
Y254498D01*
X195996Y253498D01*
X200994D02*
X201994Y254498D01*
X203994D01*
X204993Y253498D01*
Y252499D01*
X203994Y251499D01*
X204993Y250499D01*
Y249500D01*
X203994Y248500D01*
X201994D01*
X200994Y249500D01*
Y250499D01*
X201994Y251499D01*
X200994Y252499D01*
Y253498D01*
X201994Y251499D02*
X203994D01*
X206993Y248500D02*
Y249500D01*
X207992D01*
Y248500D01*
X206993D01*
X211991Y253498D02*
X212991Y254498D01*
X214990D01*
X215990Y253498D01*
Y249500D01*
X214990Y248500D01*
X212991D01*
X211991Y249500D01*
Y253498D01*
X221988Y254498D02*
X217989D01*
Y251499D01*
X219988Y252499D01*
X220988D01*
X221988Y251499D01*
Y249500D01*
X220988Y248500D01*
X218989D01*
X217989Y249500D01*
X223987Y248500D02*
Y249500D01*
X224987D01*
Y248500D01*
X223987D01*
X228985D02*
X230985D01*
X229985D01*
Y254498D01*
X228985Y253498D01*
X233984Y249500D02*
X234983Y248500D01*
X236983D01*
X237983Y249500D01*
Y253498D01*
X236983Y254498D01*
X234983D01*
X233984Y253498D01*
Y252499D01*
X234983Y251499D01*
X237983D01*
X558500Y131998D02*
Y126000D01*
X562499D01*
X564498D02*
Y129999D01*
X566497Y131998D01*
X568497Y129999D01*
Y126000D01*
Y128999D01*
X564498D01*
X574495Y130998D02*
X573495Y131998D01*
X571496D01*
X570496Y130998D01*
Y129999D01*
X571496Y128999D01*
X573495D01*
X574495Y127999D01*
Y127000D01*
X573495Y126000D01*
X571496D01*
X570496Y127000D01*
X580493Y131998D02*
X576494D01*
Y126000D01*
X580493D01*
X576494Y128999D02*
X578493D01*
X582492Y126000D02*
Y131998D01*
X585491D01*
X586491Y130998D01*
Y128999D01*
X585491Y127999D01*
X582492D01*
X584492D02*
X586491Y126000D01*
X637499Y130998D02*
X636499Y131998D01*
X634500D01*
X633500Y130998D01*
Y127000D01*
X634500Y126000D01*
X636499D01*
X637499Y127000D01*
Y128999D01*
X635499D01*
X639498Y126000D02*
Y131998D01*
X642497D01*
X643497Y130998D01*
Y128999D01*
X642497Y127999D01*
X639498D01*
X645496Y131998D02*
X647496D01*
X646496D01*
Y126000D01*
X645496D01*
X647496D01*
X653493Y131998D02*
X651494D01*
X650494Y130998D01*
Y127000D01*
X651494Y126000D01*
X653493D01*
X654493Y127000D01*
Y130998D01*
X653493Y131998D01*
X679502Y135500D02*
X685500D01*
Y138499D01*
X684500Y139499D01*
X683501D01*
X682501Y138499D01*
Y135500D01*
Y138499D01*
X681501Y139499D01*
X680502D01*
X679502Y138499D01*
Y135500D01*
Y144497D02*
Y142498D01*
X680502Y141498D01*
X684500D01*
X685500Y142498D01*
Y144497D01*
X684500Y145497D01*
X680502D01*
X679502Y144497D01*
Y150495D02*
Y148496D01*
X680502Y147496D01*
X684500D01*
X685500Y148496D01*
Y150495D01*
X684500Y151495D01*
X680502D01*
X679502Y150495D01*
Y153494D02*
Y157493D01*
Y155493D01*
X685500D01*
X208500Y128500D02*
Y134498D01*
X210499Y132499D01*
X212499Y134498D01*
Y128500D01*
X217497Y134498D02*
X215498D01*
X214498Y133498D01*
Y129500D01*
X215498Y128500D01*
X217497D01*
X218497Y129500D01*
Y133498D01*
X217497Y134498D01*
X220496D02*
X224495D01*
X222496D01*
Y128500D01*
X229493Y134498D02*
X227494D01*
X226494Y133498D01*
Y129500D01*
X227494Y128500D01*
X229493D01*
X230493Y129500D01*
Y133498D01*
X229493Y134498D01*
X232492Y128500D02*
Y134498D01*
X235491D01*
X236491Y133498D01*
Y131499D01*
X235491Y130499D01*
X232492D01*
X234492D02*
X236491Y128500D01*
X242489D02*
X238490D01*
X242489Y132499D01*
Y133498D01*
X241489Y134498D01*
X239490D01*
X238490Y133498D01*
X334500Y128500D02*
Y134498D01*
X336499Y132499D01*
X338499Y134498D01*
Y128500D01*
X343497Y134498D02*
X341498D01*
X340498Y133498D01*
Y129500D01*
X341498Y128500D01*
X343497D01*
X344497Y129500D01*
Y133498D01*
X343497Y134498D01*
X346496D02*
X350495D01*
X348496D01*
Y128500D01*
X355493Y134498D02*
X353494D01*
X352494Y133498D01*
Y129500D01*
X353494Y128500D01*
X355493D01*
X356493Y129500D01*
Y133498D01*
X355493Y134498D01*
X358492Y128500D02*
Y134498D01*
X361491D01*
X362491Y133498D01*
Y131499D01*
X361491Y130499D01*
X358492D01*
X360492D02*
X362491Y128500D01*
X364490D02*
X366490D01*
X365490D01*
Y134498D01*
X364490Y133498D01*
X460499Y114500D02*
X457500Y117499D01*
X460499Y120498D01*
X463498Y117499D02*
X467497D01*
X475494Y114500D02*
X477493D01*
X476494D01*
Y120498D01*
X475494Y119498D01*
X484491Y114500D02*
X480493D01*
X484491Y118499D01*
Y119498D01*
X483492Y120498D01*
X481492D01*
X480493Y119498D01*
X486491Y120498D02*
Y116499D01*
X488490Y114500D01*
X490489Y116499D01*
Y120498D01*
X492489Y117499D02*
X496487D01*
X494488Y119498D02*
Y115500D01*
X290494Y125637D02*
X291150Y124982D01*
X292462D01*
X293118Y125637D01*
Y128261D01*
X292462Y128917D01*
X291150D01*
X290494Y128261D01*
X288526Y126294D02*
X287214D01*
X286559Y126950D01*
Y128917D01*
X288526D01*
X289182Y128261D01*
X288526Y127605D01*
X286559D01*
X285247Y130229D02*
Y126294D01*
X283279D01*
X282623Y126950D01*
Y128261D01*
X283279Y128917D01*
X285247D01*
X407994Y125637D02*
X408650Y124982D01*
X409962D01*
X410618Y125637D01*
Y128261D01*
X409962Y128917D01*
X408650D01*
X407994Y128261D01*
X406026Y126294D02*
X404714D01*
X404059Y126950D01*
Y128917D01*
X406026D01*
X406682Y128261D01*
X406026Y127605D01*
X404059D01*
X402747Y130229D02*
Y126294D01*
X400779D01*
X400123Y126950D01*
Y128261D01*
X400779Y128917D01*
X402747D01*
X543069Y250232D02*
X542069Y251232D01*
Y253231D01*
X543069Y254231D01*
X544068D01*
X545068Y253231D01*
Y252232D01*
Y253231D01*
X546068Y254231D01*
X547067D01*
X548067Y253231D01*
Y251232D01*
X547067Y250232D01*
X544068Y256230D02*
X548067Y258230D01*
X544068Y260229D01*
X543069Y262228D02*
X542069Y263228D01*
Y265227D01*
X543069Y266227D01*
X544068D01*
X545068Y265227D01*
Y264228D01*
Y265227D01*
X546068Y266227D01*
X547067D01*
X548067Y265227D01*
Y263228D01*
X547067Y262228D01*
X434637Y222506D02*
X433982Y221850D01*
Y220538D01*
X434637Y219882D01*
X437261D01*
X437917Y220538D01*
Y221850D01*
X437261Y222506D01*
X435293Y224474D02*
Y225785D01*
X435949Y226441D01*
X437917D01*
Y224474D01*
X437261Y223818D01*
X436605Y224474D01*
Y226441D01*
X439229Y227753D02*
X435293D01*
Y229721D01*
X435949Y230377D01*
X437261D01*
X437917Y229721D01*
Y227753D01*
X493138Y222006D02*
X492482Y221350D01*
Y220038D01*
X493138Y219382D01*
X495761D01*
X496417Y220038D01*
Y221350D01*
X495761Y222006D01*
X493793Y223974D02*
Y225286D01*
X494449Y225941D01*
X496417D01*
Y223974D01*
X495761Y223318D01*
X495105Y223974D01*
Y225941D01*
X497729Y227253D02*
X493793D01*
Y229221D01*
X494449Y229877D01*
X495761D01*
X496417Y229221D01*
Y227253D01*
X434637Y187506D02*
X433982Y186850D01*
Y185538D01*
X434637Y184882D01*
X437261D01*
X437917Y185538D01*
Y186850D01*
X437261Y187506D01*
X435293Y189474D02*
Y190786D01*
X435949Y191442D01*
X437917D01*
Y189474D01*
X437261Y188818D01*
X436605Y189474D01*
Y191442D01*
X439229Y192753D02*
X435293D01*
Y194721D01*
X435949Y195377D01*
X437261D01*
X437917Y194721D01*
Y192753D01*
D28*
X595472Y142713D02*
G03*
X595472Y144287I0J787D01*
G01*
X629000Y122500D02*
X659000D01*
X629000Y112500D02*
Y122500D01*
Y112500D02*
X659000D01*
Y122500D01*
X582500Y112500D02*
Y122500D01*
X562500Y112500D02*
X582500D01*
X562500D02*
Y122500D01*
X582500D01*
X595472Y141728D02*
Y142713D01*
Y144287D02*
Y145272D01*
Y141728D02*
X604528D01*
Y145272D01*
X595472D02*
X604528D01*
X330500Y112500D02*
Y122500D01*
X370500D01*
X330500Y112500D02*
X370500D01*
Y122500D01*
X205500Y112500D02*
Y122500D01*
X245500D01*
X205500Y112500D02*
X245500D01*
Y122500D01*
X431500D02*
X451500D01*
X431500Y112500D02*
Y122500D01*
Y112500D02*
X451500D01*
Y122500D01*
X677500Y112500D02*
Y132500D01*
Y112500D02*
X687500D01*
Y132500D01*
X677500D02*
X687500D01*
X677500Y268500D02*
X687500D01*
Y238500D02*
Y268500D01*
X677500Y238500D02*
X687500D01*
X677500D02*
Y268500D01*
D29*
X682500Y191126D02*
Y193095D01*
Y215126D02*
Y217094D01*
X544626Y282500D02*
X546594D01*
X570000Y274429D02*
Y276398D01*
X577500Y166929D02*
Y168898D01*
X604000Y167102D02*
Y169071D01*
X540587Y247476D02*
X549248D01*
X540587D02*
Y269130D01*
X549248D01*
Y247476D02*
Y269130D01*
M02*
