G04 Layer_Color=255*
%FSLAX25Y25*%
%MOIN*%
G70*
G01*
G75*
%ADD10R,0.04921X0.06693*%
%ADD11R,0.06693X0.04921*%
%ADD12R,0.03937X0.03937*%
%ADD13R,0.23622X0.23622*%
%ADD14R,0.04724X0.03543*%
%ADD15R,0.03543X0.04724*%
%ADD16R,0.11811X0.03543*%
%ADD17R,0.07874X0.11811*%
%ADD21R,0.05906X0.05906*%
%ADD22C,0.05906*%
%ADD23O,0.05000X0.10000*%
%ADD24R,0.05000X0.10000*%
%ADD25C,0.06000*%
%ADD26R,0.05906X0.05906*%
D10*
X682500Y199000D02*
D03*
Y185024D02*
D03*
Y223000D02*
D03*
Y209024D02*
D03*
X570000Y268524D02*
D03*
Y282500D02*
D03*
X577500Y161024D02*
D03*
Y175000D02*
D03*
X604000Y174976D02*
D03*
Y161000D02*
D03*
D11*
X552500Y282500D02*
D03*
X538524D02*
D03*
D12*
X596260Y148618D02*
D03*
X603740D02*
D03*
X600000Y138382D02*
D03*
D13*
X622622Y233051D02*
D03*
D14*
X657508Y263500D02*
D03*
Y258500D02*
D03*
Y253500D02*
D03*
Y248500D02*
D03*
Y243500D02*
D03*
Y238500D02*
D03*
Y233500D02*
D03*
Y228500D02*
D03*
Y223500D02*
D03*
Y218500D02*
D03*
Y213500D02*
D03*
Y208500D02*
D03*
Y203500D02*
D03*
Y198500D02*
D03*
X585508D02*
D03*
Y203500D02*
D03*
Y208500D02*
D03*
Y213500D02*
D03*
Y218500D02*
D03*
Y223500D02*
D03*
Y228500D02*
D03*
Y233500D02*
D03*
Y238500D02*
D03*
Y243500D02*
D03*
Y248500D02*
D03*
Y253500D02*
D03*
Y258500D02*
D03*
Y263500D02*
D03*
D15*
X644000Y192000D02*
D03*
X639000D02*
D03*
X634000D02*
D03*
X629000D02*
D03*
X624000D02*
D03*
X619000D02*
D03*
X614000D02*
D03*
X609000D02*
D03*
X604000D02*
D03*
X599008D02*
D03*
D16*
X558303Y249445D02*
D03*
Y258500D02*
D03*
Y267555D02*
D03*
D17*
X533500Y258500D02*
D03*
D21*
X654000Y117500D02*
D03*
X567500D02*
D03*
X365500D02*
D03*
X240500D02*
D03*
X436500D02*
D03*
D22*
X644000D02*
D03*
X634000D02*
D03*
X577500D02*
D03*
X355500D02*
D03*
X345500D02*
D03*
X335500D02*
D03*
X230500D02*
D03*
X220500D02*
D03*
X210500D02*
D03*
X446500D02*
D03*
X682500Y127500D02*
D03*
Y243500D02*
D03*
Y253500D02*
D03*
X470000Y216886D02*
D03*
X462126Y210193D02*
D03*
X470000Y203500D02*
D03*
X462126Y196807D02*
D03*
X470000Y190114D02*
D03*
D23*
X315500Y149500D02*
D03*
X325500D02*
D03*
X335500D02*
D03*
X345500D02*
D03*
X355500D02*
D03*
X365500D02*
D03*
X375500D02*
D03*
X385500D02*
D03*
X315500Y199500D02*
D03*
X325500D02*
D03*
X335500D02*
D03*
X345500D02*
D03*
X355500D02*
D03*
X365500D02*
D03*
X375500D02*
D03*
X190500Y149500D02*
D03*
X200500D02*
D03*
X210500D02*
D03*
X220500D02*
D03*
X230500D02*
D03*
X240500D02*
D03*
X250500D02*
D03*
X260500D02*
D03*
X190500Y199500D02*
D03*
X200500D02*
D03*
X210500D02*
D03*
X220500D02*
D03*
X230500D02*
D03*
X240500D02*
D03*
X250500D02*
D03*
D24*
X385500D02*
D03*
X260500D02*
D03*
D25*
X288000Y137500D02*
D03*
Y117500D02*
D03*
X405500Y137500D02*
D03*
Y117500D02*
D03*
X446500Y225000D02*
D03*
X426500D02*
D03*
X505000Y224500D02*
D03*
X485000D02*
D03*
X505000Y187000D02*
D03*
Y197000D02*
D03*
X446500Y190000D02*
D03*
X426500D02*
D03*
D26*
X682500Y117500D02*
D03*
Y263500D02*
D03*
M02*
