G04 Layer_Physical_Order=2*
G04 Layer_Color=16711680*
%FSLAX25Y25*%
%MOIN*%
G70*
G01*
G75*
%ADD19C,0.01000*%
%ADD20C,0.03937*%
%ADD21R,0.05906X0.05906*%
%ADD22C,0.05906*%
%ADD23O,0.05000X0.10000*%
%ADD24R,0.05000X0.10000*%
%ADD25C,0.06000*%
%ADD26R,0.05906X0.05906*%
%ADD27C,0.05000*%
G36*
X698780Y101220D02*
X174220D01*
Y293280D01*
X584758D01*
X584988Y293000D01*
Y269499D01*
X585066Y269109D01*
X585287Y268778D01*
X585618Y268558D01*
X586008Y268480D01*
X657008D01*
X657398Y268558D01*
X657729Y268778D01*
X657950Y269109D01*
X658028Y269499D01*
Y293000D01*
X658257Y293280D01*
X698780D01*
Y101220D01*
D02*
G37*
%LPC*%
G36*
X220500Y155530D02*
X219586Y155410D01*
X218735Y155057D01*
X218004Y154496D01*
X217443Y153765D01*
X217090Y152914D01*
X216970Y152000D01*
Y147000D01*
X217090Y146086D01*
X217443Y145235D01*
X218004Y144504D01*
X218735Y143943D01*
X219586Y143590D01*
X220500Y143470D01*
X221414Y143590D01*
X222265Y143943D01*
X222996Y144504D01*
X223557Y145235D01*
X223910Y146086D01*
X224030Y147000D01*
Y152000D01*
X223910Y152914D01*
X223557Y153765D01*
X222996Y154496D01*
X222265Y155057D01*
X221414Y155410D01*
X220500Y155530D01*
D02*
G37*
G36*
X210500D02*
X209586Y155410D01*
X208735Y155057D01*
X208004Y154496D01*
X207443Y153765D01*
X207090Y152914D01*
X206970Y152000D01*
Y147000D01*
X207090Y146086D01*
X207443Y145235D01*
X208004Y144504D01*
X208735Y143943D01*
X209586Y143590D01*
X210500Y143470D01*
X211414Y143590D01*
X212265Y143943D01*
X212996Y144504D01*
X213557Y145235D01*
X213910Y146086D01*
X214030Y147000D01*
Y152000D01*
X213910Y152914D01*
X213557Y153765D01*
X212996Y154496D01*
X212265Y155057D01*
X211414Y155410D01*
X210500Y155530D01*
D02*
G37*
G36*
X200500D02*
X199586Y155410D01*
X198735Y155057D01*
X198004Y154496D01*
X197443Y153765D01*
X197090Y152914D01*
X196970Y152000D01*
Y147000D01*
X197090Y146086D01*
X197443Y145235D01*
X198004Y144504D01*
X198735Y143943D01*
X199586Y143590D01*
X200500Y143470D01*
X201414Y143590D01*
X202265Y143943D01*
X202996Y144504D01*
X203557Y145235D01*
X203910Y146086D01*
X204030Y147000D01*
Y152000D01*
X203910Y152914D01*
X203557Y153765D01*
X202996Y154496D01*
X202265Y155057D01*
X201414Y155410D01*
X200500Y155530D01*
D02*
G37*
G36*
X230500D02*
X229586Y155410D01*
X228735Y155057D01*
X228004Y154496D01*
X227443Y153765D01*
X227090Y152914D01*
X226970Y152000D01*
Y147000D01*
X227090Y146086D01*
X227443Y145235D01*
X228004Y144504D01*
X228735Y143943D01*
X229586Y143590D01*
X230500Y143470D01*
X231414Y143590D01*
X232265Y143943D01*
X232996Y144504D01*
X233557Y145235D01*
X233910Y146086D01*
X234030Y147000D01*
Y152000D01*
X233910Y152914D01*
X233557Y153765D01*
X232996Y154496D01*
X232265Y155057D01*
X231414Y155410D01*
X230500Y155530D01*
D02*
G37*
G36*
X325500D02*
X324586Y155410D01*
X323735Y155057D01*
X323004Y154496D01*
X322443Y153765D01*
X322090Y152914D01*
X321970Y152000D01*
Y147000D01*
X322090Y146086D01*
X322443Y145235D01*
X323004Y144504D01*
X323735Y143943D01*
X324586Y143590D01*
X325500Y143470D01*
X326414Y143590D01*
X327265Y143943D01*
X327996Y144504D01*
X328557Y145235D01*
X328910Y146086D01*
X329030Y147000D01*
Y152000D01*
X328910Y152914D01*
X328557Y153765D01*
X327996Y154496D01*
X327265Y155057D01*
X326414Y155410D01*
X325500Y155530D01*
D02*
G37*
G36*
X260500D02*
X259586Y155410D01*
X258735Y155057D01*
X258004Y154496D01*
X257443Y153765D01*
X257090Y152914D01*
X256970Y152000D01*
Y147000D01*
X257090Y146086D01*
X257443Y145235D01*
X258004Y144504D01*
X258735Y143943D01*
X259586Y143590D01*
X260500Y143470D01*
X261414Y143590D01*
X262265Y143943D01*
X262996Y144504D01*
X263557Y145235D01*
X263910Y146086D01*
X264030Y147000D01*
Y152000D01*
X263910Y152914D01*
X263557Y153765D01*
X262996Y154496D01*
X262265Y155057D01*
X261414Y155410D01*
X260500Y155530D01*
D02*
G37*
G36*
X240500D02*
X239586Y155410D01*
X238735Y155057D01*
X238004Y154496D01*
X237443Y153765D01*
X237090Y152914D01*
X236970Y152000D01*
Y147000D01*
X237090Y146086D01*
X237443Y145235D01*
X238004Y144504D01*
X238735Y143943D01*
X239586Y143590D01*
X240500Y143470D01*
X241414Y143590D01*
X242265Y143943D01*
X242996Y144504D01*
X243557Y145235D01*
X243910Y146086D01*
X244030Y147000D01*
Y152000D01*
X243910Y152914D01*
X243557Y153765D01*
X242996Y154496D01*
X242265Y155057D01*
X241414Y155410D01*
X240500Y155530D01*
D02*
G37*
G36*
X405500Y141534D02*
X404456Y141397D01*
X403483Y140994D01*
X402647Y140353D01*
X402006Y139517D01*
X401603Y138544D01*
X401466Y137500D01*
X401603Y136456D01*
X402006Y135483D01*
X402647Y134647D01*
X403483Y134006D01*
X404456Y133603D01*
X405500Y133466D01*
X406544Y133603D01*
X407517Y134006D01*
X408353Y134647D01*
X408994Y135483D01*
X409397Y136456D01*
X409535Y137500D01*
X409397Y138544D01*
X408994Y139517D01*
X408353Y140353D01*
X407517Y140994D01*
X406544Y141397D01*
X405500Y141534D01*
D02*
G37*
G36*
X406000Y121469D02*
Y118000D01*
X409469D01*
X409397Y118544D01*
X408994Y119517D01*
X408353Y120353D01*
X407517Y120994D01*
X406544Y121397D01*
X406000Y121469D01*
D02*
G37*
G36*
X288500D02*
Y118000D01*
X291969D01*
X291897Y118544D01*
X291494Y119517D01*
X290853Y120353D01*
X290017Y120994D01*
X289044Y121397D01*
X288500Y121469D01*
D02*
G37*
G36*
X571453Y121453D02*
X568000D01*
Y118000D01*
X571453D01*
Y121453D01*
D02*
G37*
G36*
X686453D02*
X683000D01*
Y118000D01*
X686453D01*
Y121453D01*
D02*
G37*
G36*
X288000Y141534D02*
X286956Y141397D01*
X285983Y140994D01*
X285147Y140353D01*
X284506Y139517D01*
X284103Y138544D01*
X283965Y137500D01*
X284103Y136456D01*
X284506Y135483D01*
X285147Y134647D01*
X285983Y134006D01*
X286956Y133603D01*
X288000Y133466D01*
X289044Y133603D01*
X290017Y134006D01*
X290853Y134647D01*
X291494Y135483D01*
X291897Y136456D01*
X292035Y137500D01*
X291897Y138544D01*
X291494Y139517D01*
X290853Y140353D01*
X290017Y140994D01*
X289044Y141397D01*
X288000Y141534D01*
D02*
G37*
G36*
X682500Y131487D02*
X681468Y131351D01*
X680507Y130953D01*
X679681Y130319D01*
X679047Y129493D01*
X678649Y128532D01*
X678513Y127500D01*
X678649Y126468D01*
X679047Y125507D01*
X679681Y124681D01*
X680507Y124047D01*
X681468Y123649D01*
X682500Y123513D01*
X683532Y123649D01*
X684493Y124047D01*
X685319Y124681D01*
X685953Y125507D01*
X686351Y126468D01*
X686487Y127500D01*
X686351Y128532D01*
X685953Y129493D01*
X685319Y130319D01*
X684493Y130953D01*
X683532Y131351D01*
X682500Y131487D01*
D02*
G37*
G36*
X657953Y121453D02*
X654500D01*
Y118000D01*
X657953D01*
Y121453D01*
D02*
G37*
G36*
X254030Y149000D02*
X251000D01*
Y143536D01*
X251414Y143590D01*
X252265Y143943D01*
X252996Y144504D01*
X253557Y145235D01*
X253910Y146086D01*
X254030Y147000D01*
Y149000D01*
D02*
G37*
G36*
X194030D02*
X191000D01*
Y143536D01*
X191414Y143590D01*
X192265Y143943D01*
X192996Y144504D01*
X193557Y145235D01*
X193910Y146086D01*
X194030Y147000D01*
Y149000D01*
D02*
G37*
G36*
X375000D02*
X371970D01*
Y147000D01*
X372090Y146086D01*
X372443Y145235D01*
X373004Y144504D01*
X373735Y143943D01*
X374586Y143590D01*
X375000Y143536D01*
Y149000D01*
D02*
G37*
G36*
X319030D02*
X316000D01*
Y143536D01*
X316414Y143590D01*
X317265Y143943D01*
X317996Y144504D01*
X318557Y145235D01*
X318910Y146086D01*
X319030Y147000D01*
Y149000D01*
D02*
G37*
G36*
X250000Y155464D02*
X249586Y155410D01*
X248735Y155057D01*
X248004Y154496D01*
X247443Y153765D01*
X247090Y152914D01*
X246970Y152000D01*
Y150000D01*
X250000D01*
Y155464D01*
D02*
G37*
G36*
X190000D02*
X189586Y155410D01*
X188735Y155057D01*
X188004Y154496D01*
X187443Y153765D01*
X187090Y152914D01*
X186970Y152000D01*
Y150000D01*
X190000D01*
Y155464D01*
D02*
G37*
G36*
X379030Y149000D02*
X376000D01*
Y143536D01*
X376414Y143590D01*
X377265Y143943D01*
X377996Y144504D01*
X378557Y145235D01*
X378910Y146086D01*
X379030Y147000D01*
Y149000D01*
D02*
G37*
G36*
X315000D02*
X311970D01*
Y147000D01*
X312090Y146086D01*
X312443Y145235D01*
X313004Y144504D01*
X313735Y143943D01*
X314586Y143590D01*
X315000Y143536D01*
Y149000D01*
D02*
G37*
G36*
X355500Y155530D02*
X354586Y155410D01*
X353735Y155057D01*
X353004Y154496D01*
X352443Y153765D01*
X352090Y152914D01*
X351970Y152000D01*
Y147000D01*
X352090Y146086D01*
X352443Y145235D01*
X353004Y144504D01*
X353735Y143943D01*
X354586Y143590D01*
X355500Y143470D01*
X356414Y143590D01*
X357265Y143943D01*
X357996Y144504D01*
X358557Y145235D01*
X358910Y146086D01*
X359030Y147000D01*
Y152000D01*
X358910Y152914D01*
X358557Y153765D01*
X357996Y154496D01*
X357265Y155057D01*
X356414Y155410D01*
X355500Y155530D01*
D02*
G37*
G36*
X345500D02*
X344586Y155410D01*
X343735Y155057D01*
X343004Y154496D01*
X342443Y153765D01*
X342090Y152914D01*
X341970Y152000D01*
Y147000D01*
X342090Y146086D01*
X342443Y145235D01*
X343004Y144504D01*
X343735Y143943D01*
X344586Y143590D01*
X345500Y143470D01*
X346414Y143590D01*
X347265Y143943D01*
X347996Y144504D01*
X348557Y145235D01*
X348910Y146086D01*
X349030Y147000D01*
Y152000D01*
X348910Y152914D01*
X348557Y153765D01*
X347996Y154496D01*
X347265Y155057D01*
X346414Y155410D01*
X345500Y155530D01*
D02*
G37*
G36*
X335500D02*
X334586Y155410D01*
X333735Y155057D01*
X333004Y154496D01*
X332443Y153765D01*
X332090Y152914D01*
X331970Y152000D01*
Y147000D01*
X332090Y146086D01*
X332443Y145235D01*
X333004Y144504D01*
X333735Y143943D01*
X334586Y143590D01*
X335500Y143470D01*
X336414Y143590D01*
X337265Y143943D01*
X337996Y144504D01*
X338557Y145235D01*
X338910Y146086D01*
X339030Y147000D01*
Y152000D01*
X338910Y152914D01*
X338557Y153765D01*
X337996Y154496D01*
X337265Y155057D01*
X336414Y155410D01*
X335500Y155530D01*
D02*
G37*
G36*
X365500D02*
X364586Y155410D01*
X363735Y155057D01*
X363004Y154496D01*
X362443Y153765D01*
X362090Y152914D01*
X361970Y152000D01*
Y147000D01*
X362090Y146086D01*
X362443Y145235D01*
X363004Y144504D01*
X363735Y143943D01*
X364586Y143590D01*
X365500Y143470D01*
X366414Y143590D01*
X367265Y143943D01*
X367996Y144504D01*
X368557Y145235D01*
X368910Y146086D01*
X369030Y147000D01*
Y152000D01*
X368910Y152914D01*
X368557Y153765D01*
X367996Y154496D01*
X367265Y155057D01*
X366414Y155410D01*
X365500Y155530D01*
D02*
G37*
G36*
X250000Y149000D02*
X246970D01*
Y147000D01*
X247090Y146086D01*
X247443Y145235D01*
X248004Y144504D01*
X248735Y143943D01*
X249586Y143590D01*
X250000Y143536D01*
Y149000D01*
D02*
G37*
G36*
X190000D02*
X186970D01*
Y147000D01*
X187090Y146086D01*
X187443Y145235D01*
X188004Y144504D01*
X188735Y143943D01*
X189586Y143590D01*
X190000Y143536D01*
Y149000D01*
D02*
G37*
G36*
X385500Y155530D02*
X384586Y155410D01*
X383735Y155057D01*
X383004Y154496D01*
X382443Y153765D01*
X382090Y152914D01*
X381970Y152000D01*
Y147000D01*
X382090Y146086D01*
X382443Y145235D01*
X383004Y144504D01*
X383735Y143943D01*
X384586Y143590D01*
X385500Y143470D01*
X386414Y143590D01*
X387265Y143943D01*
X387996Y144504D01*
X388557Y145235D01*
X388910Y146086D01*
X389030Y147000D01*
Y152000D01*
X388910Y152914D01*
X388557Y153765D01*
X387996Y154496D01*
X387265Y155057D01*
X386414Y155410D01*
X385500Y155530D01*
D02*
G37*
G36*
X567000Y121453D02*
X563547D01*
Y118000D01*
X567000D01*
Y121453D01*
D02*
G37*
G36*
X287500Y117000D02*
X284031D01*
X284103Y116456D01*
X284506Y115483D01*
X285147Y114647D01*
X285983Y114006D01*
X286956Y113603D01*
X287500Y113531D01*
Y117000D01*
D02*
G37*
G36*
X644000Y121487D02*
X642968Y121351D01*
X642007Y120953D01*
X641181Y120319D01*
X640547Y119493D01*
X640149Y118532D01*
X640013Y117500D01*
X640149Y116468D01*
X640547Y115507D01*
X641181Y114681D01*
X642007Y114047D01*
X642968Y113649D01*
X644000Y113513D01*
X645032Y113649D01*
X645993Y114047D01*
X646819Y114681D01*
X647453Y115507D01*
X647851Y116468D01*
X647987Y117500D01*
X647851Y118532D01*
X647453Y119493D01*
X646819Y120319D01*
X645993Y120953D01*
X645032Y121351D01*
X644000Y121487D01*
D02*
G37*
G36*
X634000D02*
X632968Y121351D01*
X632007Y120953D01*
X631181Y120319D01*
X630547Y119493D01*
X630149Y118532D01*
X630013Y117500D01*
X630149Y116468D01*
X630547Y115507D01*
X631181Y114681D01*
X632007Y114047D01*
X632968Y113649D01*
X634000Y113513D01*
X635032Y113649D01*
X635993Y114047D01*
X636819Y114681D01*
X637453Y115507D01*
X637851Y116468D01*
X637987Y117500D01*
X637851Y118532D01*
X637453Y119493D01*
X636819Y120319D01*
X635993Y120953D01*
X635032Y121351D01*
X634000Y121487D01*
D02*
G37*
G36*
X405000Y117000D02*
X401531D01*
X401603Y116456D01*
X402006Y115483D01*
X402647Y114647D01*
X403483Y114006D01*
X404456Y113603D01*
X405000Y113531D01*
Y117000D01*
D02*
G37*
G36*
X244453Y121453D02*
X236547D01*
Y113547D01*
X244453D01*
Y121453D01*
D02*
G37*
G36*
X409469Y117000D02*
X406000D01*
Y113531D01*
X406544Y113603D01*
X407517Y114006D01*
X408353Y114647D01*
X408994Y115483D01*
X409397Y116456D01*
X409469Y117000D01*
D02*
G37*
G36*
X291969D02*
X288500D01*
Y113531D01*
X289044Y113603D01*
X290017Y114006D01*
X290853Y114647D01*
X291494Y115483D01*
X291897Y116456D01*
X291969Y117000D01*
D02*
G37*
G36*
X577500Y121487D02*
X576468Y121351D01*
X575507Y120953D01*
X574681Y120319D01*
X574047Y119493D01*
X573649Y118532D01*
X573513Y117500D01*
X573649Y116468D01*
X574047Y115507D01*
X574681Y114681D01*
X575507Y114047D01*
X576468Y113649D01*
X577500Y113513D01*
X578532Y113649D01*
X579493Y114047D01*
X580319Y114681D01*
X580953Y115507D01*
X581351Y116468D01*
X581487Y117500D01*
X581351Y118532D01*
X580953Y119493D01*
X580319Y120319D01*
X579493Y120953D01*
X578532Y121351D01*
X577500Y121487D01*
D02*
G37*
G36*
X230500D02*
X229468Y121351D01*
X228507Y120953D01*
X227681Y120319D01*
X227047Y119493D01*
X226649Y118532D01*
X226513Y117500D01*
X226649Y116468D01*
X227047Y115507D01*
X227681Y114681D01*
X228507Y114047D01*
X229468Y113649D01*
X230500Y113513D01*
X231532Y113649D01*
X232493Y114047D01*
X233319Y114681D01*
X233953Y115507D01*
X234351Y116468D01*
X234487Y117500D01*
X234351Y118532D01*
X233953Y119493D01*
X233319Y120319D01*
X232493Y120953D01*
X231532Y121351D01*
X230500Y121487D01*
D02*
G37*
G36*
X220500D02*
X219468Y121351D01*
X218507Y120953D01*
X217681Y120319D01*
X217047Y119493D01*
X216649Y118532D01*
X216513Y117500D01*
X216649Y116468D01*
X217047Y115507D01*
X217681Y114681D01*
X218507Y114047D01*
X219468Y113649D01*
X220500Y113513D01*
X221532Y113649D01*
X222493Y114047D01*
X223319Y114681D01*
X223953Y115507D01*
X224351Y116468D01*
X224487Y117500D01*
X224351Y118532D01*
X223953Y119493D01*
X223319Y120319D01*
X222493Y120953D01*
X221532Y121351D01*
X220500Y121487D01*
D02*
G37*
G36*
X210500D02*
X209468Y121351D01*
X208507Y120953D01*
X207681Y120319D01*
X207047Y119493D01*
X206649Y118532D01*
X206513Y117500D01*
X206649Y116468D01*
X207047Y115507D01*
X207681Y114681D01*
X208507Y114047D01*
X209468Y113649D01*
X210500Y113513D01*
X211532Y113649D01*
X212493Y114047D01*
X213319Y114681D01*
X213953Y115507D01*
X214351Y116468D01*
X214487Y117500D01*
X214351Y118532D01*
X213953Y119493D01*
X213319Y120319D01*
X212493Y120953D01*
X211532Y121351D01*
X210500Y121487D01*
D02*
G37*
G36*
X335500D02*
X334468Y121351D01*
X333507Y120953D01*
X332681Y120319D01*
X332047Y119493D01*
X331649Y118532D01*
X331513Y117500D01*
X331649Y116468D01*
X332047Y115507D01*
X332681Y114681D01*
X333507Y114047D01*
X334468Y113649D01*
X335500Y113513D01*
X336532Y113649D01*
X337493Y114047D01*
X338319Y114681D01*
X338953Y115507D01*
X339351Y116468D01*
X339487Y117500D01*
X339351Y118532D01*
X338953Y119493D01*
X338319Y120319D01*
X337493Y120953D01*
X336532Y121351D01*
X335500Y121487D01*
D02*
G37*
G36*
X446500Y194035D02*
X445456Y193897D01*
X444483Y193494D01*
X443647Y192853D01*
X443006Y192017D01*
X442603Y191044D01*
X442465Y190000D01*
X442603Y188956D01*
X443006Y187983D01*
X443506Y187331D01*
Y120091D01*
X443047Y119493D01*
X442649Y118532D01*
X442513Y117500D01*
X442649Y116468D01*
X443047Y115507D01*
X443681Y114681D01*
X444507Y114047D01*
X445468Y113649D01*
X446500Y113513D01*
X447532Y113649D01*
X448493Y114047D01*
X449319Y114681D01*
X449953Y115507D01*
X450351Y116468D01*
X450487Y117500D01*
X450351Y118532D01*
X449953Y119493D01*
X449494Y120091D01*
Y187331D01*
X449994Y187983D01*
X450397Y188956D01*
X450534Y190000D01*
X450397Y191044D01*
X449994Y192017D01*
X449353Y192853D01*
X448517Y193494D01*
X447544Y193897D01*
X446500Y194035D01*
D02*
G37*
G36*
X355500Y121487D02*
X354468Y121351D01*
X353507Y120953D01*
X352681Y120319D01*
X352047Y119493D01*
X351649Y118532D01*
X351513Y117500D01*
X351649Y116468D01*
X352047Y115507D01*
X352681Y114681D01*
X353507Y114047D01*
X354468Y113649D01*
X355500Y113513D01*
X356532Y113649D01*
X357493Y114047D01*
X358319Y114681D01*
X358953Y115507D01*
X359351Y116468D01*
X359487Y117500D01*
X359351Y118532D01*
X358953Y119493D01*
X358319Y120319D01*
X357493Y120953D01*
X356532Y121351D01*
X355500Y121487D01*
D02*
G37*
G36*
X345500D02*
X344468Y121351D01*
X343507Y120953D01*
X342681Y120319D01*
X342047Y119493D01*
X341649Y118532D01*
X341513Y117500D01*
X341649Y116468D01*
X342047Y115507D01*
X342681Y114681D01*
X343507Y114047D01*
X344468Y113649D01*
X345500Y113513D01*
X346532Y113649D01*
X347493Y114047D01*
X348319Y114681D01*
X348953Y115507D01*
X349351Y116468D01*
X349487Y117500D01*
X349351Y118532D01*
X348953Y119493D01*
X348319Y120319D01*
X347493Y120953D01*
X346532Y121351D01*
X345500Y121487D01*
D02*
G37*
G36*
X287500Y121469D02*
X286956Y121397D01*
X285983Y120994D01*
X285147Y120353D01*
X284506Y119517D01*
X284103Y118544D01*
X284031Y118000D01*
X287500D01*
Y121469D01*
D02*
G37*
G36*
X653500Y121453D02*
X650047D01*
Y118000D01*
X653500D01*
Y121453D01*
D02*
G37*
G36*
X686453Y117000D02*
X683000D01*
Y113547D01*
X686453D01*
Y117000D01*
D02*
G37*
G36*
X405000Y121469D02*
X404456Y121397D01*
X403483Y120994D01*
X402647Y120353D01*
X402006Y119517D01*
X401603Y118544D01*
X401531Y118000D01*
X405000D01*
Y121469D01*
D02*
G37*
G36*
X440453Y121453D02*
X437000D01*
Y118000D01*
X440453D01*
Y121453D01*
D02*
G37*
G36*
X436000D02*
X432547D01*
Y118000D01*
X436000D01*
Y121453D01*
D02*
G37*
G36*
X682000D02*
X678547D01*
Y118000D01*
X682000D01*
Y121453D01*
D02*
G37*
G36*
Y117000D02*
X678547D01*
Y113547D01*
X682000D01*
Y117000D01*
D02*
G37*
G36*
X440453D02*
X437000D01*
Y113547D01*
X440453D01*
Y117000D01*
D02*
G37*
G36*
X436000D02*
X432547D01*
Y113547D01*
X436000D01*
Y117000D01*
D02*
G37*
G36*
X369453Y121453D02*
X361547D01*
Y113547D01*
X369453D01*
Y121453D01*
D02*
G37*
G36*
X567000Y117000D02*
X563547D01*
Y113547D01*
X567000D01*
Y117000D01*
D02*
G37*
G36*
X657953D02*
X654500D01*
Y113547D01*
X657953D01*
Y117000D01*
D02*
G37*
G36*
X653500D02*
X650047D01*
Y113547D01*
X653500D01*
Y117000D01*
D02*
G37*
G36*
X571453D02*
X568000D01*
Y113547D01*
X571453D01*
Y117000D01*
D02*
G37*
G36*
X389000Y205500D02*
X386000D01*
Y200000D01*
X389000D01*
Y205500D01*
D02*
G37*
G36*
X264000D02*
X261000D01*
Y200000D01*
X264000D01*
Y205500D01*
D02*
G37*
G36*
X385000D02*
X382000D01*
Y200000D01*
X385000D01*
Y205500D01*
D02*
G37*
G36*
X469500Y207421D02*
X468968Y207351D01*
X468007Y206953D01*
X467181Y206319D01*
X466547Y205493D01*
X466149Y204532D01*
X466079Y204000D01*
X469500D01*
Y207421D01*
D02*
G37*
G36*
Y216386D02*
X466079D01*
X466149Y215854D01*
X466547Y214892D01*
X467181Y214067D01*
X468007Y213433D01*
X468968Y213035D01*
X469500Y212965D01*
Y216386D01*
D02*
G37*
G36*
X462126Y214180D02*
X461094Y214044D01*
X460133Y213646D01*
X459307Y213012D01*
X458673Y212186D01*
X458275Y211225D01*
X458139Y210193D01*
X458275Y209161D01*
X458673Y208200D01*
X459307Y207374D01*
X460133Y206740D01*
X461094Y206342D01*
X462126Y206206D01*
X463158Y206342D01*
X464119Y206740D01*
X464945Y207374D01*
X465579Y208200D01*
X465977Y209161D01*
X466113Y210193D01*
X465977Y211225D01*
X465579Y212186D01*
X464945Y213012D01*
X464119Y213646D01*
X463158Y214044D01*
X462126Y214180D01*
D02*
G37*
G36*
X470500Y207421D02*
Y204000D01*
X473921D01*
X473851Y204532D01*
X473453Y205493D01*
X472819Y206319D01*
X471993Y206953D01*
X471032Y207351D01*
X470500Y207421D01*
D02*
G37*
G36*
X260000Y205500D02*
X257000D01*
Y200000D01*
X260000D01*
Y205500D01*
D02*
G37*
G36*
X264000Y199000D02*
X261000D01*
Y193500D01*
X264000D01*
Y199000D01*
D02*
G37*
G36*
X260000D02*
X257000D01*
Y193500D01*
X260000D01*
Y199000D01*
D02*
G37*
G36*
X375500Y205530D02*
X374586Y205410D01*
X373735Y205057D01*
X373004Y204496D01*
X372443Y203765D01*
X372090Y202914D01*
X371970Y202000D01*
Y197000D01*
X372090Y196086D01*
X372443Y195235D01*
X373004Y194504D01*
X373735Y193943D01*
X374586Y193590D01*
X375500Y193470D01*
X376414Y193590D01*
X377265Y193943D01*
X377996Y194504D01*
X378557Y195235D01*
X378910Y196086D01*
X379030Y197000D01*
Y202000D01*
X378910Y202914D01*
X378557Y203765D01*
X377996Y204496D01*
X377265Y205057D01*
X376414Y205410D01*
X375500Y205530D01*
D02*
G37*
G36*
X385000Y199000D02*
X382000D01*
Y193500D01*
X385000D01*
Y199000D01*
D02*
G37*
G36*
X473921Y203000D02*
X470500D01*
Y199579D01*
X471032Y199649D01*
X471993Y200047D01*
X472819Y200681D01*
X473453Y201507D01*
X473851Y202468D01*
X473921Y203000D01*
D02*
G37*
G36*
X469500D02*
X466079D01*
X466149Y202468D01*
X466547Y201507D01*
X467181Y200681D01*
X468007Y200047D01*
X468968Y199649D01*
X469500Y199579D01*
Y203000D01*
D02*
G37*
G36*
X389000Y199000D02*
X386000D01*
Y193500D01*
X389000D01*
Y199000D01*
D02*
G37*
G36*
X682500Y257487D02*
X681468Y257351D01*
X680507Y256953D01*
X679681Y256319D01*
X679047Y255493D01*
X678649Y254532D01*
X678513Y253500D01*
X678649Y252468D01*
X679047Y251507D01*
X679681Y250681D01*
X680507Y250047D01*
X681468Y249649D01*
X682500Y249513D01*
X683532Y249649D01*
X684493Y250047D01*
X685319Y250681D01*
X685953Y251507D01*
X686351Y252468D01*
X686487Y253500D01*
X686351Y254532D01*
X685953Y255493D01*
X685319Y256319D01*
X684493Y256953D01*
X683532Y257351D01*
X682500Y257487D01*
D02*
G37*
G36*
Y247487D02*
X681468Y247351D01*
X680507Y246953D01*
X679681Y246319D01*
X679047Y245493D01*
X678649Y244532D01*
X678513Y243500D01*
X678649Y242468D01*
X679047Y241507D01*
X679681Y240681D01*
X680507Y240047D01*
X681468Y239649D01*
X682500Y239513D01*
X683532Y239649D01*
X684493Y240047D01*
X685319Y240681D01*
X685953Y241507D01*
X686351Y242468D01*
X686487Y243500D01*
X686351Y244532D01*
X685953Y245493D01*
X685319Y246319D01*
X684493Y246953D01*
X683532Y247351D01*
X682500Y247487D01*
D02*
G37*
G36*
X427000Y228969D02*
Y225500D01*
X430469D01*
X430397Y226044D01*
X429994Y227017D01*
X429353Y227853D01*
X428517Y228494D01*
X427544Y228897D01*
X427000Y228969D01*
D02*
G37*
G36*
X682000Y263000D02*
X678547D01*
Y259547D01*
X682000D01*
Y263000D01*
D02*
G37*
G36*
X686453Y267453D02*
X683000D01*
Y264000D01*
X686453D01*
Y267453D01*
D02*
G37*
G36*
X682000D02*
X678547D01*
Y264000D01*
X682000D01*
Y267453D01*
D02*
G37*
G36*
X686453Y263000D02*
X683000D01*
Y259547D01*
X686453D01*
Y263000D01*
D02*
G37*
G36*
X426000Y228969D02*
X425456Y228897D01*
X424483Y228494D01*
X423647Y227853D01*
X423006Y227017D01*
X422603Y226044D01*
X422531Y225500D01*
X426000D01*
Y228969D01*
D02*
G37*
G36*
X470500Y220807D02*
Y217386D01*
X473921D01*
X473851Y217918D01*
X473453Y218879D01*
X472819Y219705D01*
X471993Y220339D01*
X471032Y220737D01*
X470500Y220807D01*
D02*
G37*
G36*
X469500D02*
X468968Y220737D01*
X468007Y220339D01*
X467181Y219705D01*
X466547Y218879D01*
X466149Y217918D01*
X466079Y217386D01*
X469500D01*
Y220807D01*
D02*
G37*
G36*
X473921Y216386D02*
X470500D01*
Y212965D01*
X471032Y213035D01*
X471993Y213433D01*
X472819Y214067D01*
X473453Y214892D01*
X473851Y215854D01*
X473921Y216386D01*
D02*
G37*
G36*
X505000Y228535D02*
X503956Y228397D01*
X502983Y227994D01*
X502147Y227353D01*
X501506Y226517D01*
X501103Y225544D01*
X500965Y224500D01*
X501103Y223456D01*
X501506Y222483D01*
X502147Y221647D01*
X502983Y221006D01*
X503956Y220603D01*
X505000Y220465D01*
X506044Y220603D01*
X507017Y221006D01*
X507853Y221647D01*
X508494Y222483D01*
X508897Y223456D01*
X509034Y224500D01*
X508897Y225544D01*
X508494Y226517D01*
X507853Y227353D01*
X507017Y227994D01*
X506044Y228397D01*
X505000Y228535D01*
D02*
G37*
G36*
X430469Y224500D02*
X427000D01*
Y221031D01*
X427544Y221103D01*
X428517Y221506D01*
X429353Y222147D01*
X429994Y222983D01*
X430397Y223956D01*
X430469Y224500D01*
D02*
G37*
G36*
X426000D02*
X422531D01*
X422603Y223956D01*
X423006Y222983D01*
X423647Y222147D01*
X424483Y221506D01*
X425456Y221103D01*
X426000Y221031D01*
Y224500D01*
D02*
G37*
G36*
X446500Y229034D02*
X445456Y228897D01*
X444483Y228494D01*
X443647Y227853D01*
X443006Y227017D01*
X442603Y226044D01*
X442465Y225000D01*
X442603Y223956D01*
X443006Y222983D01*
X443647Y222147D01*
X444483Y221506D01*
X445456Y221103D01*
X446500Y220966D01*
X447544Y221103D01*
X448517Y221506D01*
X449353Y222147D01*
X449994Y222983D01*
X450397Y223956D01*
X450534Y225000D01*
X450397Y226044D01*
X449994Y227017D01*
X449353Y227853D01*
X448517Y228494D01*
X447544Y228897D01*
X446500Y229034D01*
D02*
G37*
G36*
X365500Y205530D02*
X364586Y205410D01*
X363735Y205057D01*
X363004Y204496D01*
X362443Y203765D01*
X362090Y202914D01*
X361970Y202000D01*
Y197000D01*
X362090Y196086D01*
X362443Y195235D01*
X363004Y194504D01*
X363735Y193943D01*
X364586Y193590D01*
X365500Y193470D01*
X366414Y193590D01*
X367265Y193943D01*
X367996Y194504D01*
X368557Y195235D01*
X368910Y196086D01*
X369030Y197000D01*
Y202000D01*
X368910Y202914D01*
X368557Y203765D01*
X367996Y204496D01*
X367265Y205057D01*
X366414Y205410D01*
X365500Y205530D01*
D02*
G37*
G36*
X430469Y189500D02*
X427000D01*
Y186031D01*
X427544Y186103D01*
X428517Y186506D01*
X429353Y187147D01*
X429994Y187983D01*
X430397Y188956D01*
X430469Y189500D01*
D02*
G37*
G36*
X426000D02*
X422531D01*
X422603Y188956D01*
X423006Y187983D01*
X423647Y187147D01*
X424483Y186506D01*
X425456Y186103D01*
X426000Y186031D01*
Y189500D01*
D02*
G37*
G36*
X508969Y186500D02*
X505500D01*
Y183031D01*
X506044Y183103D01*
X507017Y183506D01*
X507853Y184147D01*
X508494Y184983D01*
X508897Y185956D01*
X508969Y186500D01*
D02*
G37*
G36*
X470000Y194101D02*
X468968Y193965D01*
X468007Y193567D01*
X467181Y192933D01*
X466547Y192108D01*
X466149Y191146D01*
X466013Y190114D01*
X466149Y189082D01*
X466547Y188121D01*
X467181Y187295D01*
X468007Y186661D01*
X468968Y186263D01*
X470000Y186127D01*
X471032Y186263D01*
X471993Y186661D01*
X472819Y187295D01*
X473453Y188121D01*
X473851Y189082D01*
X473987Y190114D01*
X473851Y191146D01*
X473453Y192108D01*
X472819Y192933D01*
X471993Y193567D01*
X471032Y193965D01*
X470000Y194101D01*
D02*
G37*
G36*
X426000Y193969D02*
X425456Y193897D01*
X424483Y193494D01*
X423647Y192853D01*
X423006Y192017D01*
X422603Y191044D01*
X422531Y190500D01*
X426000D01*
Y193969D01*
D02*
G37*
G36*
X505500Y190969D02*
Y187500D01*
X508969D01*
X508897Y188044D01*
X508494Y189017D01*
X507853Y189853D01*
X507017Y190494D01*
X506044Y190897D01*
X505500Y190969D01*
D02*
G37*
G36*
X504500D02*
X503956Y190897D01*
X502983Y190494D01*
X502147Y189853D01*
X501506Y189017D01*
X501103Y188044D01*
X501031Y187500D01*
X504500D01*
Y190969D01*
D02*
G37*
G36*
Y186500D02*
X501031D01*
X501103Y185956D01*
X501506Y184983D01*
X502147Y184147D01*
X502983Y183506D01*
X503956Y183103D01*
X504500Y183031D01*
Y186500D01*
D02*
G37*
G36*
X191000Y155464D02*
Y150000D01*
X194030D01*
Y152000D01*
X193910Y152914D01*
X193557Y153765D01*
X192996Y154496D01*
X192265Y155057D01*
X191414Y155410D01*
X191000Y155464D01*
D02*
G37*
G36*
X375000D02*
X374586Y155410D01*
X373735Y155057D01*
X373004Y154496D01*
X372443Y153765D01*
X372090Y152914D01*
X371970Y152000D01*
Y150000D01*
X375000D01*
Y155464D01*
D02*
G37*
G36*
X315000D02*
X314586Y155410D01*
X313735Y155057D01*
X313004Y154496D01*
X312443Y153765D01*
X312090Y152914D01*
X311970Y152000D01*
Y150000D01*
X315000D01*
Y155464D01*
D02*
G37*
G36*
X251000D02*
Y150000D01*
X254030D01*
Y152000D01*
X253910Y152914D01*
X253557Y153765D01*
X252996Y154496D01*
X252265Y155057D01*
X251414Y155410D01*
X251000Y155464D01*
D02*
G37*
G36*
X485000Y228535D02*
X483956Y228397D01*
X482983Y227994D01*
X482147Y227353D01*
X481506Y226517D01*
X481103Y225544D01*
X480966Y224500D01*
X481103Y223456D01*
X481506Y222483D01*
X482147Y221647D01*
X482983Y221006D01*
X483956Y220603D01*
X485000Y220465D01*
X486044Y220603D01*
X486532Y220805D01*
X498419Y208919D01*
X498915Y208587D01*
X499500Y208471D01*
X525867D01*
X558188Y176149D01*
X558090Y175914D01*
X557970Y175000D01*
X558090Y174086D01*
X558443Y173235D01*
X559004Y172504D01*
X559735Y171943D01*
X560586Y171590D01*
X561500Y171470D01*
X562414Y171590D01*
X563265Y171943D01*
X563996Y172504D01*
X564557Y173235D01*
X564910Y174086D01*
X565030Y175000D01*
X564910Y175914D01*
X564557Y176765D01*
X563996Y177496D01*
X563265Y178057D01*
X562414Y178410D01*
X561500Y178530D01*
X560586Y178410D01*
X560351Y178312D01*
X527581Y211081D01*
X527085Y211413D01*
X526500Y211529D01*
X500134D01*
X488695Y222968D01*
X488897Y223456D01*
X489035Y224500D01*
X488897Y225544D01*
X488494Y226517D01*
X487853Y227353D01*
X487017Y227994D01*
X486044Y228397D01*
X485000Y228535D01*
D02*
G37*
G36*
X376000Y155464D02*
Y150000D01*
X379030D01*
Y152000D01*
X378910Y152914D01*
X378557Y153765D01*
X377996Y154496D01*
X377265Y155057D01*
X376414Y155410D01*
X376000Y155464D01*
D02*
G37*
G36*
X316000D02*
Y150000D01*
X319030D01*
Y152000D01*
X318910Y152914D01*
X318557Y153765D01*
X317996Y154496D01*
X317265Y155057D01*
X316414Y155410D01*
X316000Y155464D01*
D02*
G37*
G36*
X315500Y205530D02*
X314586Y205410D01*
X313735Y205057D01*
X313004Y204496D01*
X312443Y203765D01*
X312090Y202914D01*
X311970Y202000D01*
Y197000D01*
X312090Y196086D01*
X312443Y195235D01*
X313004Y194504D01*
X313735Y193943D01*
X314586Y193590D01*
X315500Y193470D01*
X316414Y193590D01*
X317265Y193943D01*
X317996Y194504D01*
X318557Y195235D01*
X318910Y196086D01*
X319030Y197000D01*
Y202000D01*
X318910Y202914D01*
X318557Y203765D01*
X317996Y204496D01*
X317265Y205057D01*
X316414Y205410D01*
X315500Y205530D01*
D02*
G37*
G36*
X250500D02*
X249586Y205410D01*
X248735Y205057D01*
X248004Y204496D01*
X247443Y203765D01*
X247090Y202914D01*
X246970Y202000D01*
Y197000D01*
X247090Y196086D01*
X247443Y195235D01*
X248004Y194504D01*
X248735Y193943D01*
X249586Y193590D01*
X250500Y193470D01*
X251414Y193590D01*
X252265Y193943D01*
X252996Y194504D01*
X253557Y195235D01*
X253910Y196086D01*
X254030Y197000D01*
Y202000D01*
X253910Y202914D01*
X253557Y203765D01*
X252996Y204496D01*
X252265Y205057D01*
X251414Y205410D01*
X250500Y205530D01*
D02*
G37*
G36*
X240500D02*
X239586Y205410D01*
X238735Y205057D01*
X238004Y204496D01*
X237443Y203765D01*
X237090Y202914D01*
X236970Y202000D01*
Y197000D01*
X237090Y196086D01*
X237443Y195235D01*
X238004Y194504D01*
X238735Y193943D01*
X239586Y193590D01*
X240500Y193470D01*
X241414Y193590D01*
X242265Y193943D01*
X242996Y194504D01*
X243557Y195235D01*
X243910Y196086D01*
X244030Y197000D01*
Y202000D01*
X243910Y202914D01*
X243557Y203765D01*
X242996Y204496D01*
X242265Y205057D01*
X241414Y205410D01*
X240500Y205530D01*
D02*
G37*
G36*
X325500D02*
X324586Y205410D01*
X323735Y205057D01*
X323004Y204496D01*
X322443Y203765D01*
X322090Y202914D01*
X321970Y202000D01*
Y197000D01*
X322090Y196086D01*
X322443Y195235D01*
X323004Y194504D01*
X323735Y193943D01*
X324586Y193590D01*
X325500Y193470D01*
X326414Y193590D01*
X327265Y193943D01*
X327996Y194504D01*
X328557Y195235D01*
X328910Y196086D01*
X329030Y197000D01*
Y202000D01*
X328910Y202914D01*
X328557Y203765D01*
X327996Y204496D01*
X327265Y205057D01*
X326414Y205410D01*
X325500Y205530D01*
D02*
G37*
G36*
X355500D02*
X354586Y205410D01*
X353735Y205057D01*
X353004Y204496D01*
X352443Y203765D01*
X352090Y202914D01*
X351970Y202000D01*
Y197000D01*
X352090Y196086D01*
X352443Y195235D01*
X353004Y194504D01*
X353735Y193943D01*
X354586Y193590D01*
X355500Y193470D01*
X356414Y193590D01*
X357265Y193943D01*
X357996Y194504D01*
X358557Y195235D01*
X358910Y196086D01*
X359030Y197000D01*
Y202000D01*
X358910Y202914D01*
X358557Y203765D01*
X357996Y204496D01*
X357265Y205057D01*
X356414Y205410D01*
X355500Y205530D01*
D02*
G37*
G36*
X345500D02*
X344586Y205410D01*
X343735Y205057D01*
X343004Y204496D01*
X342443Y203765D01*
X342090Y202914D01*
X341970Y202000D01*
Y197000D01*
X342090Y196086D01*
X342443Y195235D01*
X343004Y194504D01*
X343735Y193943D01*
X344586Y193590D01*
X345500Y193470D01*
X346414Y193590D01*
X347265Y193943D01*
X347996Y194504D01*
X348557Y195235D01*
X348910Y196086D01*
X349030Y197000D01*
Y202000D01*
X348910Y202914D01*
X348557Y203765D01*
X347996Y204496D01*
X347265Y205057D01*
X346414Y205410D01*
X345500Y205530D01*
D02*
G37*
G36*
X335500D02*
X334586Y205410D01*
X333735Y205057D01*
X333004Y204496D01*
X332443Y203765D01*
X332090Y202914D01*
X331970Y202000D01*
Y197000D01*
X332090Y196086D01*
X332443Y195235D01*
X333004Y194504D01*
X333735Y193943D01*
X334586Y193590D01*
X335500Y193470D01*
X336414Y193590D01*
X337265Y193943D01*
X337996Y194504D01*
X338557Y195235D01*
X338910Y196086D01*
X339030Y197000D01*
Y202000D01*
X338910Y202914D01*
X338557Y203765D01*
X337996Y204496D01*
X337265Y205057D01*
X336414Y205410D01*
X335500Y205530D01*
D02*
G37*
G36*
X230500D02*
X229586Y205410D01*
X228735Y205057D01*
X228004Y204496D01*
X227443Y203765D01*
X227090Y202914D01*
X226970Y202000D01*
Y197000D01*
X227090Y196086D01*
X227443Y195235D01*
X228004Y194504D01*
X228735Y193943D01*
X229586Y193590D01*
X230500Y193470D01*
X231414Y193590D01*
X232265Y193943D01*
X232996Y194504D01*
X233557Y195235D01*
X233910Y196086D01*
X234030Y197000D01*
Y202000D01*
X233910Y202914D01*
X233557Y203765D01*
X232996Y204496D01*
X232265Y205057D01*
X231414Y205410D01*
X230500Y205530D01*
D02*
G37*
G36*
X505000Y201034D02*
X503956Y200897D01*
X502983Y200494D01*
X502147Y199853D01*
X501506Y199017D01*
X501103Y198044D01*
X500965Y197000D01*
X501103Y195956D01*
X501506Y194983D01*
X502147Y194147D01*
X502983Y193506D01*
X503956Y193103D01*
X505000Y192965D01*
X506044Y193103D01*
X507017Y193506D01*
X507853Y194147D01*
X508494Y194983D01*
X508897Y195956D01*
X509034Y197000D01*
X508897Y198044D01*
X508494Y199017D01*
X507853Y199853D01*
X507017Y200494D01*
X506044Y200897D01*
X505000Y201034D01*
D02*
G37*
G36*
X462126Y200794D02*
X461094Y200658D01*
X460133Y200260D01*
X459307Y199626D01*
X458673Y198801D01*
X458275Y197839D01*
X458139Y196807D01*
X458275Y195775D01*
X458673Y194814D01*
X459307Y193988D01*
X460133Y193354D01*
X461094Y192956D01*
X462126Y192820D01*
X463158Y192956D01*
X464119Y193354D01*
X464945Y193988D01*
X465579Y194814D01*
X465977Y195775D01*
X466113Y196807D01*
X465977Y197839D01*
X465579Y198801D01*
X464945Y199626D01*
X464119Y200260D01*
X463158Y200658D01*
X462126Y200794D01*
D02*
G37*
G36*
X427000Y193969D02*
Y190500D01*
X430469D01*
X430397Y191044D01*
X429994Y192017D01*
X429353Y192853D01*
X428517Y193494D01*
X427544Y193897D01*
X427000Y193969D01*
D02*
G37*
G36*
X190500Y205530D02*
X189586Y205410D01*
X188735Y205057D01*
X188004Y204496D01*
X187443Y203765D01*
X187090Y202914D01*
X186970Y202000D01*
Y197000D01*
X187090Y196086D01*
X187443Y195235D01*
X188004Y194504D01*
X188735Y193943D01*
X189586Y193590D01*
X190500Y193470D01*
X191414Y193590D01*
X192265Y193943D01*
X192996Y194504D01*
X193557Y195235D01*
X193910Y196086D01*
X194030Y197000D01*
Y202000D01*
X193910Y202914D01*
X193557Y203765D01*
X192996Y204496D01*
X192265Y205057D01*
X191414Y205410D01*
X190500Y205530D01*
D02*
G37*
G36*
X220500D02*
X219586Y205410D01*
X218735Y205057D01*
X218004Y204496D01*
X217443Y203765D01*
X217090Y202914D01*
X216970Y202000D01*
Y197000D01*
X217090Y196086D01*
X217443Y195235D01*
X218004Y194504D01*
X218735Y193943D01*
X219586Y193590D01*
X220500Y193470D01*
X221414Y193590D01*
X222265Y193943D01*
X222996Y194504D01*
X223557Y195235D01*
X223910Y196086D01*
X224030Y197000D01*
Y202000D01*
X223910Y202914D01*
X223557Y203765D01*
X222996Y204496D01*
X222265Y205057D01*
X221414Y205410D01*
X220500Y205530D01*
D02*
G37*
G36*
X210500D02*
X209586Y205410D01*
X208735Y205057D01*
X208004Y204496D01*
X207443Y203765D01*
X207090Y202914D01*
X206970Y202000D01*
Y197000D01*
X207090Y196086D01*
X207443Y195235D01*
X208004Y194504D01*
X208735Y193943D01*
X209586Y193590D01*
X210500Y193470D01*
X211414Y193590D01*
X212265Y193943D01*
X212996Y194504D01*
X213557Y195235D01*
X213910Y196086D01*
X214030Y197000D01*
Y202000D01*
X213910Y202914D01*
X213557Y203765D01*
X212996Y204496D01*
X212265Y205057D01*
X211414Y205410D01*
X210500Y205530D01*
D02*
G37*
G36*
X200500D02*
X199586Y205410D01*
X198735Y205057D01*
X198004Y204496D01*
X197443Y203765D01*
X197090Y202914D01*
X196970Y202000D01*
Y197000D01*
X197090Y196086D01*
X197443Y195235D01*
X198004Y194504D01*
X198735Y193943D01*
X199586Y193590D01*
X200500Y193470D01*
X201414Y193590D01*
X202265Y193943D01*
X202996Y194504D01*
X203557Y195235D01*
X203910Y196086D01*
X204030Y197000D01*
Y202000D01*
X203910Y202914D01*
X203557Y203765D01*
X202996Y204496D01*
X202265Y205057D01*
X201414Y205410D01*
X200500Y205530D01*
D02*
G37*
%LPD*%
D19*
X526500Y210000D02*
X561500Y175000D01*
X499500Y210000D02*
X526500D01*
X485000Y224500D02*
X499500Y210000D01*
D20*
X446500Y117500D02*
Y190000D01*
D21*
X654000Y117500D02*
D03*
X567500D02*
D03*
X365500D02*
D03*
X240500D02*
D03*
X436500D02*
D03*
D22*
X644000D02*
D03*
X634000D02*
D03*
X577500D02*
D03*
X355500D02*
D03*
X345500D02*
D03*
X335500D02*
D03*
X230500D02*
D03*
X220500D02*
D03*
X210500D02*
D03*
X446500D02*
D03*
X682500Y127500D02*
D03*
Y243500D02*
D03*
Y253500D02*
D03*
X470000Y216886D02*
D03*
X462126Y210193D02*
D03*
X470000Y203500D02*
D03*
X462126Y196807D02*
D03*
X470000Y190114D02*
D03*
D23*
X315500Y149500D02*
D03*
X325500D02*
D03*
X335500D02*
D03*
X345500D02*
D03*
X355500D02*
D03*
X365500D02*
D03*
X375500D02*
D03*
X385500D02*
D03*
X315500Y199500D02*
D03*
X325500D02*
D03*
X335500D02*
D03*
X345500D02*
D03*
X355500D02*
D03*
X365500D02*
D03*
X375500D02*
D03*
X190500Y149500D02*
D03*
X200500D02*
D03*
X210500D02*
D03*
X220500D02*
D03*
X230500D02*
D03*
X240500D02*
D03*
X250500D02*
D03*
X260500D02*
D03*
X190500Y199500D02*
D03*
X200500D02*
D03*
X210500D02*
D03*
X220500D02*
D03*
X230500D02*
D03*
X240500D02*
D03*
X250500D02*
D03*
D24*
X385500D02*
D03*
X260500D02*
D03*
D25*
X288000Y137500D02*
D03*
Y117500D02*
D03*
X405500Y137500D02*
D03*
Y117500D02*
D03*
X446500Y225000D02*
D03*
X426500D02*
D03*
X505000Y224500D02*
D03*
X485000D02*
D03*
X505000Y187000D02*
D03*
Y197000D02*
D03*
X446500Y190000D02*
D03*
X426500D02*
D03*
D26*
X682500Y117500D02*
D03*
Y263500D02*
D03*
D27*
X561500Y175000D02*
D03*
M02*
